<?xml version="1.0" encoding="UTF-8" standalone="no"?>
<!-- Created with Inkscape (http://www.inkscape.org/) -->

<svg
   width="210mm"
   height="297mm"
   viewBox="0 0 210 297"
   version="1.1"
   id="svg1"
   sodipodi:docname="logo.svg"
   inkscape:version="1.3 (0e150ed6c4, 2023-07-21)"
   xmlns:inkscape="http://www.inkscape.org/namespaces/inkscape"
   xmlns:sodipodi="http://sodipodi.sourceforge.net/DTD/sodipodi-0.dtd"
   xmlns="http://www.w3.org/2000/svg"
   xmlns:svg="http://www.w3.org/2000/svg">
  <sodipodi:namedview
     id="namedview1"
     pagecolor="#ffffff"
     bordercolor="#000000"
     borderopacity="0.25"
     inkscape:showpageshadow="2"
     inkscape:pageopacity="0.0"
     inkscape:pagecheckerboard="0"
     inkscape:deskcolor="#d1d1d1"
     inkscape:document-units="mm"
     inkscape:zoom="0.72426347"
     inkscape:cx="533.64558"
     inkscape:cy="610.96551"
     inkscape:window-width="1920"
     inkscape:window-height="1009"
     inkscape:window-x="-8"
     inkscape:window-y="-8"
     inkscape:window-maximized="1"
     inkscape:current-layer="layer1" />
  <defs
     id="defs1" />
  <g
     inkscape:label="Layer 1"
     inkscape:groupmode="layer"
     id="layer1">
    <path
       text="Overcloud"
       text-anchor="middle"
       font-size="100px"
       letter-spacing="0"
       side="left"
       offset="0.5"
       dx="0"
       dy="0"
       space="preserve"
       href=""
       font-family="Pacifico"
       font-scale="contain"
       x="0"
       y="0"
       fill="#164e87"
       data-fl-textpath=""
       id="_t1tIxHaZZG2MNmxNjEYo2"
       data-uid="o_faa908dd7_7"
       d="m 78.535638,153.74135 q -2.070425,0 -3.733747,-1.04162 -1.663318,-1.04162 -2.640373,-3.05976 -0.977055,-2.01813 -0.977055,-4.83051 v 0 q 0,-3.95815 1.291107,-6.97885 1.291109,-3.0207 3.512745,-4.66126 2.221638,-1.64054 4.920171,-1.64054 v 0 q 2.070426,0 3.733747,1.04161 1.66332,1.04163 2.640376,3.05977 0.977054,2.01813 0.977054,4.8305 v 0 q 0,3.95817 -1.291109,6.97886 -1.291107,3.0207 -3.512745,4.66125 -2.221638,1.64055 -4.920171,1.64055 z m 0.232632,-3.07278 q 1.814531,0 3.198693,-1.24994 1.38416,-1.24994 2.128584,-3.47641 0.744422,-2.22646 0.744422,-5.03883 v 0 q 0,-3.09883 -1.163161,-4.70032 -1.16316,-1.60149 -3.000954,-1.60149 v 0 q -1.791268,0 -3.163797,1.23692 -1.37253,1.23693 -2.140216,3.46339 -0.767686,2.22646 -0.767686,5.06488 v 0 q 0,3.09882 1.163161,4.70031 1.16316,1.60149 3.000954,1.60149 z m 22.54205,-4.97374 q 0.0698,-0.026 0.23264,-0.026 v 0 q 0.34895,0 0.53505,0.2604 0.18611,0.26041 0.18611,0.70309 v 0 q 0,0.80726 -0.27916,1.26297 -0.27916,0.45571 -0.83748,0.66403 v 0 q -1.07011,0.39061 -2.279795,0.39061 v 0 q -1.02358,0 -1.930841,-0.31248 v 0 q -0.674638,1.2239 -1.488848,2.52592 v 0 q -0.930529,1.48431 -1.60516,2.03116 -0.674638,0.54685 -1.535374,0.54685 v 0 q -0.953791,0 -1.500478,-0.83329 -0.546684,-0.8333 -0.686264,-2.6301 v 0 q -0.279158,-3.64567 -0.279158,-6.37992 v 0 -0.91141 q 0.02326,-0.85934 0.418738,-1.19787 0.395474,-0.33852 1.186423,-0.33852 v 0 q 0.604844,0 0.895633,0.29946 0.290791,0.29947 0.290791,1.00256 v 0 q 0,2.99465 0.325685,7.78611 v 0 q 1.395794,-2.3176 2.093692,-3.69775 v 0 q -0.348949,-0.75517 -0.348949,-1.7968 v 0 q 0,-0.88537 0.348949,-1.71867 0.348943,-0.8333 0.953791,-1.3541 0.60484,-0.52081 1.372529,-0.52081 v 0 q 0.67463,0 1.09337,0.53383 0.418739,0.53383 0.418739,1.54941 v 0 q 0,1.17182 -0.558319,2.68217 v 0 q 0.884,-0.0521 2.349586,-0.39061 v 0 z m 9.30529,2.10929 q 0.30242,0 0.4769,0.31248 0.17447,0.31249 0.17447,0.85934 v 0 q 0,1.04162 -0.442,1.61451 v 0 q -0.86074,1.17182 -2.43101,2.16136 -1.57026,0.98954 -3.36153,0.98954 v 0 q -2.44264,0 -3.79191,-1.4843 -1.349258,-1.48431 -1.349258,-4.06233 v 0 q 0,-1.79679 0.674628,-3.3462 0.67463,-1.54941 1.87269,-2.46083 1.19806,-0.91142 2.71017,-0.91142 v 0 q 1.34926,0 2.16347,0.8984 0.81422,0.8984 0.81422,2.43479 v 0 q 0,1.7968 -1.15153,3.0858 -1.15153,1.289 -3.89659,2.04418 v 0 q 0.58158,1.19786 2.21001,1.19786 v 0 q 1.04684,0 2.38447,-0.82028 1.33764,-0.82027 2.31469,-2.14833 v 0 q 0.27916,-0.36457 0.62811,-0.36457 z m -5.86233,-3.77588 q -0.86074,0 -1.45395,1.11974 -0.59321,1.11975 -0.59321,2.70822 v 0 0.0521 q 1.37253,-0.36457 2.16348,-1.09369 0.79095,-0.72914 0.79095,-1.69264 v 0 q 0,-0.49477 -0.24427,-0.79424 -0.24426,-0.29946 -0.663,-0.29946 z m 6.28107,9.71311 q -0.88401,0 -1.24458,-1.04162 -0.36059,-1.04162 -0.36059,-3.33318 v 0 q 0,-3.38527 0.86074,-6.432 v 0 q 0.20937,-0.75518 0.68627,-1.10673 0.47689,-0.35155 1.33763,-0.35155 v 0 q 0.46527,0 0.65137,0.13021 0.18611,0.1302 0.18611,0.49477 v 0 q 0,0.41665 -0.34895,1.87491 v 0 q -0.23263,1.04163 -0.37221,1.82284 -0.13958,0.78121 -0.23263,1.92699 v 0 q 0.76768,-2.23947 1.72148,-3.64567 0.95379,-1.40618 1.87268,-2.00512 0.9189,-0.59893 1.68659,-0.59893 v 0 q 1.51211,0 1.51211,1.69264 v 0 q 0,0.33852 -0.20937,1.64055 v 0 q -0.1861,1.04162 -0.1861,1.30202 v 0 q 0,0.91142 0.58158,0.91142 v 0 q 0.65137,0 1.67495,-1.14578 v 0 q 0.30242,-0.33853 0.6281,-0.33853 v 0 q 0.30242,0 0.47689,0.29947 0.17448,0.29947 0.17448,0.79423 v 0 q 0,0.9635 -0.46526,1.51035 v 0 q -0.65137,0.75518 -1.52375,1.28901 -0.87236,0.53383 -1.84941,0.53383 v 0 q -1.23296,0 -1.8727,-0.7031 -0.63974,-0.70309 -0.63974,-1.90095 v 0 q 0,-0.39061 0.0698,-0.78122 v 0 q 0.0465,-0.52081 0.0465,-0.70309 v 0 q 0,-0.41665 -0.25589,-0.41665 v 0 q -0.34895,0 -0.9189,0.87236 -0.56995,0.87236 -1.12827,2.30459 -0.55831,1.43222 -0.90726,3.02069 v 0 q -0.2559,1.2239 -0.59321,1.65357 -0.33732,0.42967 -1.05848,0.42967 z m 13.37634,0 q -2.27979,0 -3.54764,-1.44525 -1.26783,-1.44525 -1.26783,-3.81493 v 0 q 0,-2.10928 0.74442,-3.69775 0.74442,-1.58847 1.93084,-2.44781 1.18642,-0.85934 2.48916,-0.85934 v 0 q 1.27948,0 1.98901,0.84632 0.70952,0.84632 0.70952,2.17438 v 0 q 0,1.09371 -0.43036,1.84888 -0.43037,0.75518 -1.12827,0.75518 v 0 q -0.442,0 -0.70953,-0.23437 -0.26753,-0.23437 -0.26753,-0.65101 v 0 q 0,-0.18229 0.0466,-0.41665 0.0465,-0.23437 0.0698,-0.33853 v 0 q 0.11632,-0.3906 0.11632,-0.72913 v 0 q 0,-0.33853 -0.15121,-0.52081 -0.15121,-0.18229 -0.43037,-0.18229 v 0 q -0.53505,0 -1.00032,0.53383 -0.46526,0.53383 -0.74442,1.44525 -0.27916,0.91142 -0.27916,2.00512 v 0 q 0,3.0207 2.34958,3.0207 v 0 q 0.95379,0 2.0588,-0.71612 1.105,-0.71611 2.17511,-2.14833 v 0 q 0.27916,-0.36457 0.6281,-0.36457 v 0 q 0.30243,0 0.47691,0.31248 0.17446,0.31249 0.17446,0.85934 v 0 q 0,0.98954 -0.442,1.61451 v 0 q -1.09337,1.51035 -2.6171,2.33063 -1.52375,0.82027 -2.9428,0.82027 z m 12.93435,-5.93723 q 0.30243,0 0.4769,0.31248 0.17447,0.31249 0.17447,0.85934 v 0 q 0,1.04162 -0.442,1.61451 v 0 q -1.00031,1.38015 -2.17511,2.26553 -1.17479,0.88537 -2.66364,0.88537 v 0 q -2.04716,0 -3.03584,-2.08324 -0.98869,-2.08324 -0.98869,-5.39038 v 0 q 0,-3.17694 0.73279,-7.23926 0.73279,-4.06232 2.16348,-6.97886 1.43069,-2.91653 3.40806,-2.91653 v 0 q 1.11664,0 1.75637,1.1588 0.63974,1.1588 0.63974,3.32017 v 0 q 0,3.09881 -1.53537,7.18718 -1.53537,4.08835 -4.16412,8.09859 v 0 q 0.16285,1.06766 0.53506,1.52337 0.37221,0.45571 0.97705,0.45571 v 0 q 0.9538,0 1.67496,-0.61196 0.72116,-0.61194 1.83779,-2.09625 v 0 q 0.27916,-0.36457 0.6281,-0.36457 z m -2.86137,-16.09303 q -0.53505,0 -1.20969,2.16136 -0.67463,2.16136 -1.18642,5.36434 -0.51179,3.20298 -0.55832,6.14556 v 0 q 1.65169,-3.04674 2.62875,-6.1065 0.97705,-3.05975 0.97705,-5.58569 v 0 q 0,-1.97907 -0.65137,-1.97907 z m 13.49267,13.90563 q 0.30242,0 0.46526,0.33852 0.16284,0.33853 0.16284,0.85934 v 0 q 0,1.24994 -0.67463,1.4843 v 0 q -1.39579,0.54686 -3.07075,0.62498 v 0 q -0.442,2.1874 -1.74474,3.50245 -1.30274,1.31504 -2.95443,1.31504 v 0 q -1.39579,0 -2.38448,-0.75517 -0.98868,-0.75518 -1.50047,-2.00512 -0.51179,-1.24995 -0.51179,-2.70821 v 0 q 0,-1.97908 0.67463,-3.52849 0.67463,-1.54941 1.86105,-2.42177 1.18643,-0.87235 2.62875,-0.87235 v 0 q 1.768,0 2.84974,1.36712 1.08174,1.36713 1.26785,3.37225 v 0 q 1.09337,-0.0781 2.60548,-0.52081 v 0 q 0.18611,-0.0521 0.32569,-0.0521 z m -7.63034,5.36434 q 0.74442,0 1.29111,-0.67705 0.54668,-0.67706 0.73279,-1.95304 v 0 q -0.72116,-0.54685 -1.105,-1.43223 -0.38385,-0.88538 -0.38385,-1.87492 v 0 q 0,-0.41665 0.0698,-0.83329 v 0 h -0.11632 q -0.93053,0 -1.547,1.00255 -0.61647,1.00257 -0.61647,2.8254 v 0 q 0,1.43223 0.50016,2.1874 0.50015,0.75518 1.17479,0.75518 z m 8.63065,2.76029 q -1.04684,0 -1.70985,-1.08068 -0.663,-1.08068 -0.663,-2.69519 v 0 q 0,-1.95304 0.23264,-3.58057 0.23263,-1.62753 0.76768,-3.45036 v 0 q 0.23264,-0.78122 0.65137,-1.11975 0.41874,-0.33853 1.32601,-0.33853 v 0 q 0.51179,0 0.70952,0.18229 0.19774,0.18228 0.19774,0.54685 v 0 q 0,0.20832 -0.25589,1.40618 v 0 q -0.23263,0.9635 -0.37221,1.74472 v 0 q -0.46527,2.73425 -0.46527,3.64567 v 0 q 0,0.54685 0.11632,0.7682 0.11631,0.22134 0.37221,0.22134 v 0 q 0.34895,0 0.87237,-0.78121 0.52342,-0.78122 1.11663,-2.36969 0.59321,-1.58847 1.15153,-3.90607 v 0 q 0.1861,-0.78122 0.56995,-1.11975 0.38384,-0.33853 1.15153,-0.33853 v 0 q 0.53505,0 0.74442,0.14323 0.20937,0.14322 0.20937,0.53383 v 0 q 0,0.65101 -0.58158,3.56755 v 0 q -0.65137,3.33318 -0.65137,4.1144 v 0 q 0,0.49476 0.1861,0.76819 0.18611,0.27343 0.48853,0.27343 v 0 q 0.46527,0 1.10501,-0.63799 0.63973,-0.638 1.70984,-2.07022 v 0 q 0.27916,-0.36457 0.62811,-0.36457 v 0 q 0.30242,0 0.4769,0.31248 0.17447,0.31249 0.17447,0.85934 v 0 q 0,1.04162 -0.442,1.61451 v 0 q -1.00032,1.38015 -2.15185,2.26553 -1.15153,0.88537 -2.61711,0.88537 v 0 q -1.11664,0 -1.64006,-0.9635 -0.52342,-0.9635 -0.52342,-2.70821 v 0 q -0.39547,1.77076 -1.18642,2.72124 -0.79095,0.95047 -1.69822,0.95047 z m 21.58827,-5.93723 q 0.30242,0 0.4769,0.31248 0.17447,0.31249 0.17447,0.85934 v 0 q 0,1.04162 -0.44201,1.61451 v 0 q -0.95379,1.30203 -2.09369,2.22646 -1.13989,0.92444 -2.25653,0.92444 v 0 q -1.768,0 -2.69853,-2.3176 v 0 q -0.97705,1.38014 -1.70985,1.84888 -0.73279,0.46872 -1.70984,0.46872 v 0 q -1.41906,0 -2.33795,-1.18484 -0.9189,-1.18484 -0.9189,-3.0858 v 0 q 0,-2.08324 0.79095,-3.86701 0.79095,-1.78378 2.17511,-2.91654 1.38416,-1.13276 3.10564,-1.34109 v 0 q 0.442,-5.05185 1.68658,-8.63242 1.24458,-3.58057 3.26848,-3.58057 v 0 q 1.00032,0 1.66332,1.01558 0.663,1.01558 0.663,3.07277 v 0 q 0,2.91654 -1.27947,6.82261 -1.27948,3.90609 -3.4197,8.02048 v 0 q 0.0931,1.51035 0.40711,2.16136 0.31405,0.65102 0.80258,0.65102 v 0 q 0.62811,0 1.27948,-0.62498 0.65137,-0.62497 1.74474,-2.08323 v 0 q 0.27916,-0.36457 0.62811,-0.36457 z m -2.74507,-16.11907 q -0.442,0 -0.884,1.75773 -0.442,1.75773 -0.75605,4.59615 -0.31405,2.83841 -0.45363,5.93723 v 0 q 2.60548,-6.35388 2.60548,-10.20787 v 0 q 0,-0.98954 -0.15121,-1.53639 -0.15122,-0.54685 -0.36059,-0.54685 z m -6.6998,19.42621 q 0.442,0 0.884,-0.40363 0.44201,-0.40362 1.11664,-1.49732 v 0 q -0.23263,-1.40619 -0.23263,-3.15091 v 0 q 0,-0.62497 0.0465,-2.03116 v 0 q -1.27947,0.44269 -2.12859,1.91398 -0.8491,1.47129 -0.8491,3.26809 v 0 q 0,1.90095 1.16316,1.90095 z"
       style="overflow:visible;stroke-width:0.246128" />
    <g
       id="_RSW7n-2N9eGeVdvsA9wND"
       transform="matrix(0.23863886,0,0,0.3102022,-13.913529,75.654869)"
       data-uid="o_faa908dd7_8"
       style="overflow:visible">
      <path
         id="_phllc85rE7S6GrLBFDQFc"
         d="m 12.5,21.006 c -0.214,0 -0.406,-0.137 -0.475,-0.342 L 10.104,14.901 4.342,12.98 C 4.155,12.918 4.023,12.752 4.003,12.557 3.982,12.361 4.079,12.172 4.249,12.074 l 19,-11 c 0.171,-0.097 0.38,-0.088 0.537,0.023 0.16,0.111 0.24,0.305 0.206,0.497 l -3,17 c -0.026,0.15 -0.12,0.28 -0.255,0.353 -0.133,0.073 -0.293,0.08 -0.435,0.02 l -6.434,-2.757 -0.879,4.396 c -0.044,0.222 -0.232,0.387 -0.459,0.401 -0.009,-0.002 -0.02,-0.001 -0.03,-0.001 z m -6.789,-8.624 4.947,1.649 c 0.149,0.049 0.267,0.167 0.316,0.316 l 1.404,4.214 0.631,-3.154 c 0.029,-0.147 0.124,-0.274 0.258,-0.344 0.133,-0.071 0.291,-0.077 0.43,-0.017 l 6.42,2.751 2.704,-15.321 z"
         fill="#3d90e3"
         data-uid="o_faa908dd7_9"
         transform="matrix(9.2169294,0,0,9.2169294,142.60638,76.176147)" />
      <path
         id="_wcoEW1OPWL1dDQwAKQ3wP"
         d="m 13.5,16.006 c -0.101,0 -0.202,-0.03 -0.291,-0.093 -0.225,-0.16 -0.276,-0.473 -0.116,-0.697 l 6.489,-9.084 -8.729,8.728 c -0.195,0.195 -0.512,0.195 -0.707,0 -0.195,-0.195 -0.195,-0.512 0,-0.707 l 13,-13 c 0.185,-0.185 0.478,-0.197 0.677,-0.028 0.198,0.168 0.234,0.46 0.084,0.672 l -10,14 c -0.097,0.136 -0.252,0.209 -0.407,0.209 z"
         fill="#3d90e3"
         transform="matrix(9.2169294,0,0,9.2169294,142.60942,77.801613)"
         data-uid="o_faa908dd7_10" />
      <path
         id="_QAGRuNn40BQNQtoID3OYu"
         d="m 12.5,21.006 c -0.104,0 -0.21,-0.033 -0.3,-0.1 -0.221,-0.166 -0.266,-0.479 -0.101,-0.7 l 3,-4 c 0.167,-0.222 0.48,-0.265 0.7,-0.1 0.221,0.166 0.266,0.479 0.101,0.7 l -3,4 c -0.098,0.131 -0.249,0.2 -0.4,0.2 z"
         fill="#3d90e3"
         transform="matrix(9.2169294,0,0,9.2169294,144.15823,79.346283)"
         data-uid="o_faa908dd7_11" />
      <path
         id="_yb-tJ4vBPVXlCitcCDhSg"
         d="M 1.222,19.699 C 1.101,19.699 0.98,19.656 0.883,19.567 0.634,19.338 0.389,19.102 0.147,18.86 c -0.195,-0.195 -0.195,-0.512 0,-0.707 0.195,-0.196 0.512,-0.195 0.707,-10e-4 0.232,0.232 0.468,0.459 0.707,0.679 0.203,0.187 0.216,0.503 0.029,0.707 -0.099,0.106 -0.234,0.161 -0.368,0.161 z"
         fill="#3d90e3"
         transform="matrix(1.5472956,0,0,1.5472956,252.40141,204.72758)"
         data-uid="o_faa908dd7_12" />
      <path
         id="_UmfiolODk5NRACk73zmG8"
         d="m 8.034,22.995 c -0.472,0 -0.956,-0.05 -1.438,-0.149 -0.271,-0.055 -0.444,-0.319 -0.39,-0.59 0.056,-0.271 0.323,-0.442 0.591,-0.39 0.416,0.085 0.832,0.128 1.237,0.128 0.002,0 0.004,0 0.006,0 L 8.265,21.99 c 0.325,-0.018 0.509,0.206 0.519,0.481 0.01,0.275 -0.207,0.509 -0.482,0.519 l -0.261,0.005 c -0.002,0 -0.005,0 -0.007,0 z M 4.451,22.038 C 4.373,22.038 4.295,22.02 4.221,21.982 3.755,21.74 3.278,21.449 2.802,21.119 2.574,20.961 2.519,20.649 2.677,20.423 c 0.158,-0.228 0.471,-0.282 0.695,-0.125 0.44,0.307 0.881,0.575 1.31,0.797 0.245,0.127 0.341,0.429 0.213,0.674 -0.089,0.171 -0.263,0.269 -0.444,0.269 z"
         fill="#3d90e3"
         transform="matrix(9.2169294,0,0,9.2169294,110.86079,85.184273)"
         data-uid="o_faa908dd7_13" />
      <path
         id="_rTu32se3LxW-hc92MUk8L"
         d="m 10.605,22.459 c -0.194,0 -0.379,-0.114 -0.46,-0.303 -0.108,-0.254 0.01,-0.548 0.264,-0.657 0.277,-0.119 0.558,-0.259 0.837,-0.424 0.237,-0.14 0.543,-0.062 0.685,0.177 0.141,0.238 0.062,0.544 -0.177,0.685 -0.309,0.182 -0.629,0.345 -0.952,0.483 -0.064,0.027 -0.131,0.039 -0.197,0.039 z"
         fill="#3d90e3"
         transform="matrix(9.2169294,0,0,9.2169294,119.91019,82.445259)"
         data-uid="o_faa908dd7_14" />
    </g>
  </g>
</svg>
